<svg width="136" height="48" viewBox="0 0 136 48" fill="none" xmlns="http://www.w3.org/2000/svg">
<path d="M21.06 30.456C21.324 31.368 21.66 32.052 22.068 32.508C22.5 32.94 23.052 33.204 23.724 33.3V35.1C23.172 35.868 22.128 36.252 20.592 36.252C19.152 36.252 18.012 36.012 17.172 35.532C16.356 35.052 15.744 34.428 15.336 33.66C14.952 32.868 14.592 31.836 14.256 30.564C13.896 29.148 13.512 27.972 13.104 27.036C12.696 26.1 12.168 25.524 11.52 25.308H9.144V31.896C9.144 32.52 9.372 32.988 9.828 33.3C10.284 33.588 10.884 33.732 11.628 33.732C11.628 34.596 11.364 35.352 10.836 36H1.8C1.248 35.328 0.972 34.572 0.972 33.732C1.788 33.732 2.376 33.588 2.736 33.3C3.12 33.012 3.312 32.544 3.312 31.896V14.976C3.312 14.328 3.12 13.86 2.736 13.572C2.352 13.284 1.752 13.14 0.936 13.14C0.936 12.18 1.176 11.424 1.656 10.872C3.24 10.872 5.016 10.824 6.984 10.728C8.712 10.632 10.068 10.584 11.052 10.584C17.916 10.584 21.348 12.9 21.348 17.532C21.348 21.06 19.476 23.208 15.732 23.976C16.812 24.288 17.844 25.044 18.828 26.244C19.812 27.42 20.556 28.824 21.06 30.456ZM10.728 22.824C12.168 22.824 13.296 22.38 14.112 21.492C14.928 20.58 15.336 19.38 15.336 17.892C15.336 16.356 14.976 15.216 14.256 14.472C13.56 13.704 12.444 13.32 10.908 13.32C10.092 13.32 9.504 13.368 9.144 13.464V22.752C9.576 22.8 10.104 22.824 10.728 22.824Z" fill="#FF0000"/>
<path d="M36.6753 36.504C34.1553 36.504 31.9593 35.964 30.0873 34.884C28.2153 33.804 26.7753 32.304 25.7673 30.384C24.7593 28.464 24.2553 26.268 24.2553 23.796C24.2553 20.916 24.7473 18.48 25.7313 16.488C26.7393 14.496 28.1313 12.996 29.9073 11.988C31.6833 10.98 33.7353 10.476 36.0633 10.476C37.5753 10.476 39.0273 10.74 40.4193 11.268C40.7793 11.1 41.2953 10.932 41.9673 10.764C42.6633 10.596 43.2033 10.5 43.5873 10.476C44.2833 12.252 44.6313 14.964 44.6313 18.612H41.1393C40.8993 17.076 40.2993 15.888 39.3393 15.048C38.4033 14.208 37.2753 13.788 35.9553 13.788C34.3713 13.788 33.1233 14.472 32.2113 15.84C31.3233 17.184 30.8793 19.524 30.8793 22.86C30.8793 26.556 31.3233 29.172 32.2113 30.708C33.0993 32.244 34.4553 33.012 36.2793 33.012C36.9513 33.012 37.5153 32.94 37.9713 32.796C38.4273 32.652 38.8113 32.412 39.1233 32.076V27.972C39.1233 27.348 38.8473 26.904 38.2953 26.64C37.7673 26.352 36.9273 26.208 35.7753 26.208C35.7753 25.776 35.8593 25.272 36.0273 24.696C36.1953 24.12 36.3993 23.7 36.6393 23.436H44.4153C45.3513 23.436 45.9993 23.712 46.3593 24.264C46.7193 24.816 46.8993 25.344 46.8993 25.848C46.8993 26.088 46.8393 26.304 46.7193 26.496C45.8553 26.496 45.1833 26.592 44.7033 26.784V30.924C44.7033 31.692 44.8353 32.232 45.0993 32.544C45.2673 32.712 45.3513 32.928 45.3513 33.192C45.3513 33.624 44.9553 34.104 44.1633 34.632C43.3713 35.16 42.3033 35.604 40.9593 35.964C39.6393 36.324 38.2113 36.504 36.6753 36.504Z" fill="#00C51F"/>
<path d="M57.9065 36.288C56.9945 36.288 55.9265 36.252 54.7025 36.18C51.8945 36.06 49.8065 36 48.4385 36C47.9105 35.352 47.6465 34.596 47.6465 33.732C48.4625 33.732 49.0385 33.6 49.3745 33.336C49.7105 33.048 49.8785 32.568 49.8785 31.896V14.976C49.8785 14.304 49.7105 13.836 49.3745 13.572C49.0385 13.284 48.4625 13.14 47.6465 13.14C47.6465 12.276 47.9105 11.52 48.4385 10.872C49.7825 10.872 51.8585 10.836 54.6665 10.764C55.9145 10.716 56.7665 10.692 57.2225 10.692C60.9905 10.692 63.6545 11.28 65.2145 12.456C66.7745 13.632 67.5545 15.06 67.5545 16.74C67.5545 18.132 67.1945 19.308 66.4745 20.268C65.7785 21.204 64.6145 22.008 62.9825 22.68C65.1185 23.112 66.6425 23.796 67.5545 24.732C68.4665 25.668 68.9225 27.072 68.9225 28.944C68.9225 33.84 65.2505 36.288 57.9065 36.288ZM56.8985 21.816C60.1145 21.816 61.7225 20.4 61.7225 17.568C61.7225 16.224 61.3505 15.18 60.6065 14.436C59.8865 13.692 58.7825 13.32 57.2945 13.32C56.6225 13.32 56.1305 13.368 55.8185 13.464V21.744C56.2505 21.792 56.6105 21.816 56.8985 21.816ZM57.3305 33.66C60.6905 33.66 62.3705 32.208 62.3705 29.304C62.3705 27.648 61.9505 26.424 61.1105 25.632C60.2705 24.816 58.9025 24.408 57.0065 24.408L55.8185 24.444V33.552C56.4665 33.624 56.9705 33.66 57.3305 33.66Z" fill="#0057FF"/>
<path d="M73.152 23.644C73.152 19.828 73.452 16.9 74.052 14.86C74.652 12.82 75.6 11.392 76.896 10.576C78.216 9.76 80.112 9.352 82.584 9.352C85.056 9.352 86.94 9.76 88.236 10.576C89.556 11.392 90.504 12.82 91.08 14.86C91.68 16.876 91.98 19.804 91.98 23.644C91.98 28.9 91.308 32.536 89.964 34.552C88.62 36.568 86.16 37.576 82.584 37.576C79.008 37.576 76.536 36.568 75.168 34.552C73.824 32.536 73.152 28.9 73.152 23.644ZM79.164 16.948C79.02 17.836 78.936 18.748 78.912 19.684C78.888 20.596 78.876 22.156 78.876 24.364C78.876 26.572 78.948 28.42 79.092 29.908C79.236 31.396 79.428 32.38 79.668 32.86C79.908 33.316 80.232 33.544 80.64 33.544C82.752 33.544 84.144 33.328 84.816 32.896C85.032 32.728 85.248 32.452 85.464 32.068C85.704 31.684 85.872 31.288 85.968 30.88C86.064 30.472 86.148 29.872 86.22 29.08C86.316 28.048 86.364 26.2 86.364 23.536C86.364 20.848 86.292 18.736 86.148 17.2C86.028 15.64 85.836 14.584 85.572 14.032C85.332 13.456 85.008 13.168 84.6 13.168C83.64 13.168 82.86 13.216 82.26 13.312C81.684 13.384 81.168 13.588 80.712 13.924C80.256 14.236 79.92 14.596 79.704 15.004C79.488 15.388 79.308 16.036 79.164 16.948ZM90.504 41.788C90.48 42.556 90.288 43.072 89.928 43.336C89.592 43.6 88.884 43.732 87.804 43.732C86.724 43.732 84.912 43.6 82.368 43.336C79.848 43.072 77.916 42.94 76.572 42.94L75.996 41.176C76.02 40.336 76.248 39.76 76.68 39.448C77.112 39.16 77.82 39.016 78.804 39.016C79.812 39.016 81.528 39.136 83.952 39.376C86.4 39.616 88.284 39.736 89.604 39.736L90.504 41.788ZM99.8592 37.576C98.0832 37.576 96.7752 37.024 95.9352 35.92C95.1192 34.816 94.7112 32.872 94.7112 30.088V19.144C94.7112 18.76 95.1432 18.568 96.0072 18.568C96.8952 18.568 97.7592 18.628 98.5992 18.748C99.4392 18.868 99.8592 19 99.8592 19.144L99.8952 30.088C99.8952 32.776 100.087 34.12 100.471 34.12C101.335 34.12 102.487 33.688 103.927 32.824V19.144C103.927 18.76 104.359 18.568 105.223 18.568C106.111 18.568 106.975 18.628 107.815 18.748C108.679 18.868 109.111 19 109.111 19.144V37C109.111 37.144 109.087 37.24 109.039 37.288C108.943 37.48 108.319 37.576 107.167 37.576C106.039 37.576 105.343 37.384 105.079 37L104.323 35.884C102.643 37.012 101.155 37.576 99.8592 37.576ZM112.434 37V19.144C112.434 18.76 112.866 18.568 113.73 18.568C114.594 18.568 115.41 18.628 116.178 18.748C116.946 18.868 117.33 19 117.33 19.144V37C117.33 37.144 117.318 37.24 117.294 37.288C117.174 37.48 116.718 37.576 115.926 37.576C115.134 37.576 114.354 37.516 113.586 37.396C112.818 37.276 112.434 37.144 112.434 37ZM114.666 14.536C112.938 14.536 112.074 13.672 112.074 11.944C112.074 10.216 112.938 9.352 114.666 9.352C116.394 9.352 117.258 10.216 117.258 11.944C117.258 13.672 116.394 14.536 114.666 14.536ZM120.698 22.96C120.338 22.96 120.158 22.396 120.158 21.268C120.158 21.196 120.158 21.124 120.158 21.052C120.158 19.78 120.338 19.144 120.698 19.144H131.354L131.93 19.72V22.96L125.666 32.968H132.506C132.89 32.968 133.082 33.448 133.082 34.408C133.082 36.088 132.89 36.952 132.506 37H120.986L120.41 36.424V33.544L127.394 22.96H120.698Z" fill="white"/>
</svg>
